<svg width="232" height="37" viewBox="0 0 232 37" fill="none" xmlns="http://www.w3.org/2000/svg">
<path d="M224.062 33.1595C224.062 32.0715 224.43 31.1595 225.166 30.4235C225.934 29.6555 226.878 29.2715 227.998 29.2715C229.15 29.2715 230.094 29.6555 230.83 30.4235C231.566 31.1595 231.934 32.0715 231.934 33.1595C231.934 34.1835 231.566 35.0795 230.83 35.8475C230.094 36.6155 229.15 36.9995 227.998 36.9995C226.878 36.9995 225.934 36.6155 225.166 35.8475C224.43 35.0795 224.062 34.1835 224.062 33.1595Z" fill="#141212"/>
<path d="M188.353 35.9926V30.1846H205.297V35.9926H188.353ZM188.353 8.20058V2.39258H205.297V8.20058H188.353ZM188.353 21.0166V15.3046H204.337V21.0166H188.353ZM183.937 2.39258H190.561V35.9926H183.937V2.39258Z" fill="#141212"/>
<path d="M137.577 2.39258H144.585V35.9926H137.577V2.39258ZM149.001 35.9926H141.993V29.7526H148.761C150.233 29.7526 151.625 29.5606 152.937 29.1766C154.249 28.7606 155.401 28.1206 156.393 27.2566C157.385 26.3926 158.153 25.3046 158.697 23.9926C159.273 22.6486 159.561 21.0486 159.561 19.1926C159.561 17.3366 159.273 15.7526 158.697 14.4406C158.153 13.0966 157.385 11.9926 156.393 11.1286C155.401 10.2646 154.249 9.64058 152.937 9.25658C151.625 8.84058 150.233 8.63258 148.761 8.63258H141.993V2.39258H149.001C152.521 2.39258 155.593 3.08058 158.217 4.45658C160.873 5.83258 162.937 7.78458 164.409 10.3126C165.881 12.8086 166.617 15.7686 166.617 19.1926C166.617 22.6166 165.881 25.5926 164.409 28.1206C162.937 30.6166 160.873 32.5526 158.217 33.9286C155.593 35.3046 152.521 35.9926 149.001 35.9926Z" fill="#141212"/>
<path d="M96.1085 28.3598L96.9245 22.9358H113.053L113.869 28.3598H96.1085ZM104.893 13.2878L99.8525 24.8558L99.9965 26.3918L95.5805 35.9918H87.8525L104.893 0.423828L121.933 35.9918H114.157L109.837 26.6798L109.933 24.9518L104.893 13.2878Z" fill="#141212"/>
<path d="M45.0519 21.2086V15.0166H69.7239V21.2086H45.0519ZM65.3559 2.39258H72.2199V35.9926H65.3559V2.39258ZM42.7959 2.39258H49.6599V35.9926H42.7959V2.39258Z" fill="#141212"/>
<path d="M4.896 24.7127C5.6 25.9607 6.368 27.0487 7.2 27.9767C8.064 28.9047 9.008 29.6247 10.032 30.1367C11.056 30.6487 12.16 30.9047 13.344 30.9047C14.72 30.9047 15.84 30.5527 16.704 29.8487C17.568 29.1447 18 28.1847 18 26.9687C18 25.9127 17.728 25.0647 17.184 24.4247C16.672 23.7847 15.888 23.2247 14.832 22.7447C13.808 22.2327 12.544 21.6887 11.04 21.1127C10.24 20.8247 9.312 20.4407 8.256 19.9607C7.232 19.4487 6.256 18.8087 5.328 18.0407C4.4 17.2407 3.632 16.2807 3.024 15.1607C2.416 14.0087 2.112 12.6327 2.112 11.0327C2.112 9.1127 2.592 7.4647 3.552 6.08871C4.544 4.6807 5.872 3.6087 7.536 2.8727C9.232 2.1047 11.12 1.7207 13.2 1.7207C15.344 1.7207 17.184 2.0887 18.72 2.8247C20.288 3.5287 21.584 4.44071 22.608 5.56071C23.664 6.64871 24.48 7.7847 25.056 8.9687L19.68 11.9447C19.232 11.1447 18.688 10.4247 18.048 9.78471C17.44 9.11271 16.736 8.5847 15.936 8.2007C15.136 7.7847 14.224 7.57671 13.2 7.57671C11.856 7.57671 10.848 7.89671 10.176 8.53671C9.504 9.1447 9.168 9.8647 9.168 10.6967C9.168 11.5287 9.44 12.2647 9.984 12.9047C10.528 13.5127 11.36 14.1047 12.48 14.6807C13.6 15.2247 15.008 15.7847 16.704 16.3607C17.792 16.7447 18.832 17.2247 19.824 17.8007C20.848 18.3767 21.76 19.0807 22.56 19.9127C23.392 20.7127 24.032 21.6727 24.48 22.7927C24.96 23.8807 25.2 25.1447 25.2 26.5847C25.2 28.2167 24.88 29.6727 24.24 30.9527C23.6 32.2327 22.72 33.3207 21.6 34.2167C20.48 35.0807 19.216 35.7367 17.808 36.1847C16.432 36.6647 14.976 36.9047 13.44 36.9047C11.392 36.9047 9.472 36.5207 7.68 35.7527C5.92 34.9527 4.384 33.8807 3.072 32.5367C1.76 31.1927 0.736 29.7367 0 28.1687L4.896 24.7127Z" fill="#141212"/>
</svg>
