<svg width="102" height="16" viewBox="0 0 102 16" fill="none" xmlns="http://www.w3.org/2000/svg">
<path d="M2.67844 9.88C2.95844 10.3733 3.27177 10.8 3.61844 11.16C3.9651 11.5067 4.3451 11.7733 4.75844 11.96C5.17177 12.1467 5.59844 12.24 6.03844 12.24C6.4651 12.24 6.81844 12.1467 7.09844 11.96C7.37844 11.76 7.51844 11.4733 7.51844 11.1C7.51844 10.8333 7.43844 10.6133 7.27844 10.44C7.11844 10.2533 6.83844 10.0667 6.43844 9.88C6.05177 9.69333 5.5051 9.46667 4.79844 9.2C4.45177 9.06667 4.0651 8.89333 3.63844 8.68C3.21177 8.45333 2.79844 8.16667 2.39844 7.82C2.01177 7.47333 1.6851 7.04667 1.41844 6.54C1.1651 6.03333 1.03844 5.43333 1.03844 4.74C1.03844 3.86 1.27177 3.12 1.73844 2.52C2.2051 1.90667 2.8251 1.44 3.59844 1.12C4.37177 0.799999 5.23177 0.639999 6.17844 0.639999C7.1651 0.639999 8.01844 0.799999 8.73844 1.12C9.45844 1.42667 10.0518 1.82 10.5184 2.3C10.9851 2.76667 11.3451 3.24 11.5984 3.72L8.67844 5.34C8.47844 5.00667 8.2451 4.73333 7.97844 4.52C7.7251 4.29333 7.45177 4.12 7.15844 4C6.8651 3.88 6.5651 3.82 6.25844 3.82C5.87177 3.82 5.5651 3.9 5.33844 4.06C5.11177 4.22 4.99844 4.43333 4.99844 4.7C4.99844 5.00667 5.1251 5.26667 5.37844 5.48C5.6451 5.68 6.0051 5.87333 6.45844 6.06C6.9251 6.23333 7.45844 6.42667 8.05844 6.64C8.57844 6.82667 9.05177 7.05333 9.47844 7.32C9.91844 7.57333 10.2984 7.88 10.6184 8.24C10.9384 8.58667 11.1851 8.98667 11.3584 9.44C11.5318 9.89333 11.6184 10.4 11.6184 10.96C11.6184 11.7067 11.4651 12.3667 11.1584 12.94C10.8651 13.5133 10.4584 13.9933 9.93844 14.38C9.43177 14.7533 8.85177 15.0333 8.19844 15.22C7.5451 15.42 6.87844 15.52 6.19844 15.52C5.23844 15.52 4.3451 15.3533 3.51844 15.02C2.7051 14.7 1.99844 14.26 1.39844 13.7C0.798438 13.1267 0.345104 12.4933 0.0384375 11.8L2.67844 9.88ZM19.7472 9.42V5.96H30.6472V9.42H19.7472ZM28.2072 0.999999H32.0872V15H28.2072V0.999999ZM18.8072 0.999999H22.6872V15H18.8072V0.999999ZM42.4195 12.74L42.5395 9.88H49.7195L49.8195 12.74H42.4195ZM46.0795 6.74L44.2395 10.94L44.4795 11.8L42.8595 15H38.4595L46.0795 0.0599992L53.7195 15H49.3195L47.7195 11.94L47.9395 10.94L46.0795 6.74ZM60.0963 0.999999H64.1163V15H60.0963V0.999999ZM65.3363 15H62.7363V11.6H65.1763C65.6429 11.6 66.0963 11.5533 66.5363 11.46C66.9896 11.3533 67.3963 11.1733 67.7563 10.92C68.1163 10.6533 68.4029 10.2867 68.6163 9.82C68.8429 9.34 68.9563 8.73333 68.9563 8C68.9563 7.26667 68.8429 6.66667 68.6163 6.2C68.4029 5.72 68.1163 5.35333 67.7563 5.1C67.3963 4.83333 66.9896 4.65333 66.5363 4.56C66.0963 4.45333 65.6429 4.4 65.1763 4.4H62.7363V0.999999H65.3363C66.9229 0.999999 68.2829 1.28667 69.4163 1.86C70.5629 2.42 71.4429 3.22 72.0563 4.26C72.6829 5.3 72.9963 6.54667 72.9963 8C72.9963 9.44 72.6829 10.6867 72.0563 11.74C71.4429 12.78 70.5629 13.5867 69.4163 14.16C68.2829 14.72 66.9229 15 65.3363 15ZM82.7167 15V11.86H89.7767V15H82.7167ZM82.7167 4.14V0.999999H89.7767V4.14H82.7167ZM82.7167 9.24V6.2H89.3767V9.24H82.7167ZM80.0767 0.999999H83.7967V15H80.0767V0.999999ZM97.1995 13.48C97.1995 12.9067 97.3929 12.42 97.7795 12.02C98.1795 11.6067 98.6929 11.4 99.3195 11.4C99.9462 11.4 100.453 11.6067 100.84 12.02C101.226 12.42 101.42 12.9067 101.42 13.48C101.42 14.04 101.226 14.5267 100.84 14.94C100.453 15.34 99.9462 15.54 99.3195 15.54C98.6929 15.54 98.1795 15.34 97.7795 14.94C97.3929 14.5267 97.1995 14.04 97.1995 13.48Z" fill="#2D2D2D"/>
</svg>
