<svg width="36" height="12" viewBox="0 0 36 12" fill="none" xmlns="http://www.w3.org/2000/svg">
<g clip-path="url(#clip0_1553_19016)">
<path d="M18.6188 3.71688C18.5983 5.33619 20.0619 6.23977 21.1645 6.77706C22.2973 7.32826 22.6778 7.68177 22.6733 8.17476C22.6648 8.92915 21.7697 9.26213 20.932 9.27506C19.4706 9.2977 18.6209 8.8805 17.9454 8.56496L17.4189 11.0284C18.0967 11.3407 19.3517 11.613 20.6531 11.625C23.7079 11.625 25.7064 10.1171 25.7173 7.77907C25.7292 4.81184 21.613 4.6476 21.6411 3.32133C21.6509 2.91918 22.0346 2.49003 22.8755 2.38091C23.2917 2.32579 24.4406 2.2836 25.7433 2.88346L26.2545 0.50006C25.554 0.244987 24.6537 0.000740051 23.5327 0.000740051C20.6574 0.000740051 18.6351 1.52921 18.6188 3.71688ZM31.1673 0.206037C30.6095 0.206037 30.1394 0.531416 29.9296 1.03074L25.566 11.4499H28.6185L29.226 9.77115H32.9562L33.3086 11.4499H35.9991L33.6513 0.206037H31.1673ZM31.5944 3.24343L32.4753 7.46564H30.0626L31.5944 3.24343ZM14.9177 0.206177L12.5115 11.4498H15.4204L17.8255 0.205895L14.9177 0.206177ZM10.6145 0.206177L7.5868 7.85908L6.36205 1.3519C6.21835 0.625487 5.65083 0.206037 5.0206 0.206037H0.0712757L0.00195312 0.532541C1.01803 0.753023 2.17247 1.10864 2.87188 1.48914C3.29991 1.72157 3.42196 1.92476 3.56258 2.47709L5.88228 11.4499H8.95624L13.6691 0.206037L10.6145 0.206177Z" fill="url(#paint0_linear_1553_19016)"/>
</g>
<defs>
<linearGradient id="paint0_linear_1553_19016" x1="1654.93" y1="34.9433" x2="1688.58" y2="-1158.89" gradientUnits="userSpaceOnUse">
<stop stop-color="#222357"/>
<stop offset="1" stop-color="#254AA5"/>
</linearGradient>
<clipPath id="clip0_1553_19016">
<rect width="36" height="11.6709" fill="white"/>
</clipPath>
</defs>
</svg>
